# xmcd
#
# Track frame offsets:
#	150
#	17221
#	40985
#
# Disc length: 740 seconds
#
# Revision: 0
# Processed by: cddbd v1.5.2PL0 Copyright (c) Steve Scherf et al.
# Submitted via: audiograbber 1.83.01
#
DISCID=1e02e203
DTITLE=Thorsten Sander - Ohne Verstand ( Maxi CD ) ( LC12714 )
DYEAR=1900
DGENRE=
TTITLE0=Ohne Verstand ( Singel Version ) ( LC 12714)
TTITLE1=Ohne Verstand ( Maxi Version ) ( LC 12714 )
TTITLE2=Ich bin verliebt in die Liebe ( LC 12714 )
EXTD=
EXTT0=
EXTT1=
EXTT2=
PLAYORDER=
